<svg xmlns="http://www.w3.org/2000/svg" xmlns:xlink="http://www.w3.org/1999/xlink" width="500" zoomAndPan="magnify" viewBox="0 0 375 374.999991" height="500" preserveAspectRatio="xMidYMid meet" version="1.0"><defs><clipPath id="bc3a35dd1b"><path d="M 0 75 L 375 75 L 375 256.96875 L 0 256.96875 Z M 0 75 " clip-rule="nonzero"/></clipPath><clipPath id="d4138ba233"><path d="M 174.058594 86.542969 L 200.941406 86.542969 L 200.941406 217.800781 L 174.058594 217.800781 Z M 174.058594 86.542969 " clip-rule="nonzero"/></clipPath><clipPath id="8b26491a8b"><path d="M 167 172 L 208 172 L 208 184.398438 L 167 184.398438 Z M 167 172 " clip-rule="nonzero"/></clipPath><clipPath id="40e97bf1d0"><path d="M 169.84375 172.597656 C 174.015625 176.273438 180.46875 178.488281 187.496094 178.488281 C 194.527344 178.488281 200.976562 176.273438 205.148438 172.597656 C 206.417969 171.480469 208.261719 173.023438 207.371094 174.476562 C 203.6875 180.515625 196.011719 184.386719 187.496094 184.386719 C 178.980469 184.386719 171.308594 180.515625 167.621094 174.476562 C 166.734375 173.023438 168.578125 171.480469 169.84375 172.597656 Z M 169.84375 172.597656 " clip-rule="nonzero"/></clipPath><clipPath id="cb4c9b2e1e"><path d="M 149.152344 134.253906 L 169.800781 134.253906 L 169.800781 149 L 149.152344 149 Z M 149.152344 134.253906 " clip-rule="nonzero"/></clipPath><clipPath id="fbc4d77ffe"><path d="M 149.289062 147.746094 C 149.195312 147.113281 149.152344 146.476562 149.152344 145.84375 C 149.152344 139.484375 153.726562 134.253906 159.476562 134.253906 C 165.222656 134.253906 169.800781 139.484375 169.800781 145.84375 C 169.800781 146.476562 169.753906 147.113281 169.660156 147.746094 C 169.417969 149.425781 166.988281 149.425781 166.746094 147.746094 C 166.136719 143.597656 163.035156 140.578125 159.476562 140.578125 C 155.914062 140.578125 152.816406 143.597656 152.203125 147.746094 C 151.960938 149.425781 149.53125 149.425781 149.289062 147.746094 Z M 149.289062 147.746094 " clip-rule="nonzero"/></clipPath><clipPath id="49971e407f"><path d="M 205.195312 134.253906 L 225.640625 134.253906 L 225.640625 149 L 205.195312 149 Z M 205.195312 134.253906 " clip-rule="nonzero"/></clipPath><clipPath id="011cde18ea"><path d="M 205.332031 147.746094 C 205.242188 147.113281 205.195312 146.476562 205.195312 145.84375 C 205.195312 139.484375 209.769531 134.253906 215.519531 134.253906 C 221.269531 134.253906 225.84375 139.484375 225.84375 145.84375 C 225.84375 146.476562 225.796875 147.113281 225.703125 147.746094 C 225.460938 149.425781 223.03125 149.425781 222.789062 147.746094 C 222.179688 143.597656 219.078125 140.578125 215.519531 140.578125 C 211.957031 140.578125 208.859375 143.597656 208.25 147.746094 C 208.007812 149.425781 205.574219 149.425781 205.332031 147.746094 Z M 205.332031 147.746094 " clip-rule="nonzero"/></clipPath></defs><rect x="-37.5" width="450" fill="#ffffff" y="-37.499999" height="449.999989" fill-opacity="1"/><rect x="-37.5" width="450" fill="#006833" y="-37.499999" height="449.999989" fill-opacity="1"/><g clip-path="url(#bc3a35dd1b)"><path fill="#ffffff" d="M 324.011719 256.058594 C 322.625 256.058594 321.261719 256.035156 319.917969 255.984375 C 309.851562 255.628906 301.007812 253.929688 293.628906 250.933594 C 279.292969 245.109375 264.753906 243.175781 250.414062 245.183594 C 246.273438 245.761719 240.886719 246.921875 235.179688 248.152344 C 225.621094 250.214844 214.789062 252.550781 207.453125 252.589844 C 207.425781 252.589844 207.394531 252.589844 207.367188 252.589844 C 204.320312 252.589844 201.402344 251.710938 198.695312 249.972656 C 196.242188 248.398438 194.046875 246.148438 192.355469 243.460938 C 190.457031 240.457031 189.507812 237.1875 188.945312 233.847656 C 187.800781 234.980469 186.019531 237.027344 184.613281 238.644531 C 182.886719 240.628906 181.105469 242.675781 179.78125 243.976562 C 174.3125 249.339844 168.355469 252.839844 162.070312 254.378906 C 156.027344 255.855469 149.523438 255.5625 142.742188 253.5 C 139.738281 252.589844 136.722656 251.53125 133.804688 250.507812 C 129.402344 248.964844 124.847656 247.367188 120.300781 246.261719 C 115.242188 245.03125 110.707031 244.550781 106.429688 244.785156 C 96.109375 245.355469 85.878906 247.890625 75.988281 250.34375 C 69.328125 251.996094 62.4375 253.703125 55.566406 254.800781 C 47.828125 256.035156 40.941406 256.351562 34.511719 255.757812 C 29.292969 255.277344 11.410156 253.253906 0.496094 247.398438 C 0.0390625 247.15625 -0.132812 246.585938 0.113281 246.128906 C 0.355469 245.675781 0.925781 245.503906 1.382812 245.746094 C 5.351562 247.875 10.773438 249.714844 17.503906 251.222656 C 22.824219 252.410156 28.929688 253.359375 34.683594 253.890625 C 40.953125 254.46875 47.6875 254.160156 55.269531 252.949219 C 62.0625 251.863281 68.914062 250.164062 75.539062 248.523438 C 85.511719 246.050781 95.828125 243.492188 106.324219 242.914062 C 116.253906 242.363281 125.492188 245.605469 134.421875 248.738281 C 137.324219 249.753906 140.320312 250.804688 143.289062 251.707031 C 149.742188 253.667969 155.914062 253.953125 161.621094 252.554688 C 167.578125 251.097656 173.246094 247.761719 178.46875 242.636719 C 179.738281 241.390625 181.496094 239.367188 183.199219 237.414062 C 186.019531 234.171875 187.605469 232.398438 188.625 231.640625 C 188.425781 230.046875 188.285156 228.449219 188.148438 226.867188 C 188.089844 226.179688 188.03125 225.484375 187.964844 224.785156 C 187.507812 226.617188 186.925781 228.410156 186.144531 230.054688 C 184.042969 234.453125 180.847656 237.03125 176.375 237.933594 C 173.585938 238.496094 170.929688 238.777344 168.417969 238.777344 C 160.472656 238.777344 153.980469 235.980469 149.382812 230.507812 C 146.757812 227.386719 144.984375 223.539062 144.238281 219.355469 C 141.738281 220.789062 138.917969 221.589844 136.144531 221.609375 C 132.429688 221.636719 128.640625 220.484375 125.1875 218.277344 C 121.96875 216.21875 119.171875 213.355469 117.105469 209.992188 C 113.652344 204.378906 111.800781 197.226562 111.449219 188.125 C 111.339844 185.316406 111.371094 182.339844 112.347656 179.574219 C 112.789062 178.3125 113.421875 177.175781 114.191406 176.210938 C 112.316406 173.667969 110.757812 170.832031 109.582031 167.785156 C 106.765625 160.460938 106.414062 152.5625 108.589844 145.542969 C 109.78125 141.707031 111.859375 138.121094 114.445312 135.449219 C 115.957031 133.886719 117.613281 132.65625 119.363281 131.78125 C 118.347656 129.878906 117.738281 127.699219 117.597656 125.464844 C 117.28125 120.527344 119.070312 115.753906 120.445312 112.589844 C 122.933594 106.871094 126.308594 101.605469 130.207031 97.363281 C 134.542969 92.640625 139.472656 89.167969 144.855469 87.035156 C 146.820312 86.257812 149.703125 85.316406 152.628906 85.804688 C 152.769531 85.621094 152.914062 85.433594 153.066406 85.246094 C 156.125 81.464844 160.359375 78.542969 164.980469 77.027344 C 168.351562 75.917969 172.070312 75.636719 175.453125 76.226562 C 179.164062 76.871094 182.347656 78.515625 184.664062 80.976562 C 185.605469 81.976562 186.410156 83.101562 187.085938 84.363281 C 188.363281 81.878906 190.183594 79.792969 192.429688 78.324219 C 193.074219 77.898438 193.753906 77.519531 194.449219 77.1875 C 196.972656 75.988281 199.449219 75.523438 201.800781 75.808594 C 205.46875 76.257812 210.136719 78.085938 213.988281 80.582031 C 215.472656 81.542969 216.796875 82.574219 217.933594 83.652344 C 219.007812 83.257812 220.25 83.082031 221.636719 83.144531 C 226.90625 83.378906 233.625 86.984375 239.605469 92.789062 C 242.882812 95.964844 245.808594 99.65625 248.3125 103.757812 C 251.074219 108.289062 253.246094 113.222656 254.765625 118.421875 C 255.800781 121.957031 255.886719 125.332031 255.027344 128.445312 C 254.796875 129.269531 254.519531 130.023438 254.207031 130.707031 C 255.410156 131.4375 256.589844 132.355469 257.6875 133.429688 C 260.613281 136.296875 264.40625 141.636719 265.878906 150.808594 C 267.15625 158.742188 265.394531 167.144531 260.925781 174.476562 C 260.289062 175.519531 259.605469 176.523438 258.886719 177.472656 C 259.929688 178.566406 260.707031 180.03125 261.203125 181.851562 C 261.992188 184.746094 262.066406 188.558594 261.417969 193.179688 C 260.507812 199.667969 258.757812 205.210938 256.214844 209.65625 C 253.90625 213.6875 250.984375 216.769531 247.53125 218.816406 C 242.777344 221.628906 237.144531 222.300781 231.867188 220.726562 C 231.203125 223.394531 230.007812 226 228.335938 228.339844 C 225.1875 232.738281 220.59375 235.785156 214.675781 237.390625 C 209.820312 238.710938 204.148438 239.007812 198.265625 238.253906 C 195.527344 237.902344 193.433594 237.027344 191.863281 235.578125 C 191.621094 235.355469 191.332031 235.011719 190.992188 234.609375 C 191.542969 237.371094 192.410156 240.035156 193.941406 242.460938 C 195.488281 244.917969 197.484375 246.96875 199.707031 248.394531 C 202.109375 249.933594 204.6875 250.714844 207.367188 250.714844 C 207.394531 250.714844 207.417969 250.714844 207.441406 250.714844 C 214.582031 250.675781 225.316406 248.363281 234.785156 246.320312 C 240.523438 245.082031 245.945312 243.914062 250.152344 243.324219 C 264.828125 241.269531 279.691406 243.246094 294.332031 249.195312 C 301.507812 252.109375 310.136719 253.761719 319.984375 254.113281 C 327.894531 254.390625 336.59375 253.832031 345.84375 252.453125 C 361.613281 250.101562 373.644531 246.128906 373.765625 246.089844 C 374.257812 245.925781 374.789062 246.191406 374.953125 246.683594 C 375.117188 247.171875 374.847656 247.703125 374.359375 247.867188 C 374.238281 247.910156 362.050781 251.933594 346.121094 254.308594 C 338.324219 255.472656 330.90625 256.058594 324.011719 256.058594 Z M 145.964844 218.222656 C 146.542969 222.277344 148.195312 226.179688 150.820312 229.300781 C 153.800781 232.847656 157.648438 235.183594 162.265625 236.238281 C 166.320312 237.167969 170.941406 237.117188 176.003906 236.09375 C 184.273438 234.425781 185.992188 226.328125 187.238281 218.804688 C 186.582031 212.878906 186.859375 206.613281 187.125 200.527344 C 187.253906 197.632812 187.386719 194.636719 187.40625 191.800781 L 187.71875 147.679688 C 186.328125 136.96875 185.425781 126.003906 185.035156 115.042969 C 184.683594 105.117188 184.828125 97.289062 185.011719 92.472656 C 185.089844 90.429688 185.464844 88.46875 186.101562 86.65625 C 185.382812 84.945312 184.453125 83.492188 183.296875 82.261719 C 181.261719 80.097656 178.4375 78.648438 175.132812 78.074219 C 172.046875 77.535156 168.648438 77.796875 165.566406 78.808594 C 161.300781 80.210938 157.394531 82.898438 154.5625 86.378906 C 156.859375 87.40625 158.894531 89.605469 158.832031 92.398438 C 158.804688 93.542969 158.410156 94.570312 157.71875 95.289062 C 156.824219 96.222656 155.515625 96.542969 154.132812 96.164062 C 152.414062 95.695312 151.003906 94.289062 150.625 92.664062 C 150.25 91.070312 150.546875 89.363281 151.503906 87.5625 C 149.816406 87.457031 147.886719 87.851562 145.546875 88.78125 C 140.429688 90.808594 135.730469 94.121094 131.585938 98.632812 C 127.828125 102.722656 124.570312 107.808594 122.167969 113.339844 C 119.457031 119.570312 119.328125 123.175781 119.46875 125.347656 C 119.597656 127.375 120.160156 129.34375 121.097656 131.046875 C 122.230469 130.644531 123.394531 130.390625 124.574219 130.28125 C 126.4375 130.113281 127.949219 130.425781 129.066406 131.207031 C 130.460938 132.179688 131.355469 134.277344 130.367188 135.964844 C 129.191406 137.972656 126.378906 137.921875 124.328125 136.855469 C 122.800781 136.058594 121.449219 134.875 120.363281 133.382812 C 118.742188 134.164062 117.199219 135.296875 115.792969 136.753906 C 113.410156 139.21875 111.488281 142.535156 110.382812 146.097656 C 108.328125 152.714844 108.667969 160.179688 111.335938 167.109375 C 112.410156 169.898438 113.820312 172.5 115.511719 174.84375 C 116.40625 174.085938 117.410156 173.523438 118.480469 173.207031 C 120.800781 172.515625 123.332031 172.984375 125.613281 174.527344 C 127.691406 175.929688 129.332031 178.082031 130.125 180.433594 C 130.808594 182.460938 130.574219 184.210938 129.476562 185.234375 C 128.179688 186.441406 126.097656 186.339844 123.757812 184.953125 C 120.609375 183.085938 117.777344 180.632812 115.382812 177.738281 C 114.867188 178.460938 114.4375 179.289062 114.117188 180.195312 C 113.246094 182.664062 113.222656 185.429688 113.324219 188.050781 C 113.664062 196.824219 115.421875 203.679688 118.703125 209.007812 C 120.625 212.132812 123.214844 214.789062 126.195312 216.695312 C 129.34375 218.707031 132.777344 219.761719 136.132812 219.734375 C 138.828125 219.714844 141.585938 218.855469 143.960938 217.332031 C 143.589844 213.476562 144.121094 209.652344 145.523438 206.1875 C 146.25 204.386719 147.824219 202.496094 149.859375 203.089844 C 150.691406 203.332031 151.332031 203.945312 151.714844 204.871094 C 152.058594 205.703125 152.113281 206.582031 152.101562 207.175781 C 152.011719 210.972656 150.199219 214.601562 146.996094 217.394531 C 146.664062 217.683594 146.320312 217.960938 145.964844 218.222656 Z M 190.488281 231.4375 C 191.042969 231.78125 191.632812 232.453125 192.375 233.339844 C 192.667969 233.6875 192.96875 234.046875 193.136719 234.199219 C 194.410156 235.375 196.164062 236.09375 198.503906 236.394531 C 204.144531 237.117188 209.566406 236.835938 214.183594 235.582031 C 219.671875 234.089844 223.921875 231.285156 226.8125 227.246094 C 228.382812 225.050781 229.492188 222.601562 230.089844 220.105469 C 227.808594 219.167969 225.539062 217.539062 223.808594 215.601562 C 221.898438 213.457031 220.953125 211.242188 221.21875 209.53125 C 221.394531 208.40625 222.257812 206.484375 226.058594 206.28125 C 230.039062 206.066406 231.9375 210.234375 232.351562 213.871094 C 232.539062 215.511719 232.496094 217.199219 232.238281 218.878906 C 237.0625 220.367188 242.226562 219.773438 246.578125 217.199219 C 249.746094 215.324219 252.441406 212.472656 254.585938 208.722656 C 257.011719 204.484375 258.683594 199.167969 259.5625 192.917969 C 260.503906 186.1875 259.859375 181.421875 257.703125 178.957031 C 254.578125 182.660156 251.019531 185.277344 248.066406 185.886719 C 245.390625 186.445312 243.414062 185.265625 242.769531 182.742188 C 242.398438 181.292969 243.445312 179.476562 245.570312 177.882812 C 247.191406 176.664062 249.15625 175.777344 251.097656 175.382812 C 253.4375 174.910156 255.585938 175.195312 257.304688 176.207031 C 257.347656 176.234375 257.390625 176.261719 257.433594 176.289062 C 258.097656 175.402344 258.730469 174.46875 259.324219 173.5 C 263.5625 166.550781 265.234375 158.597656 264.027344 151.105469 C 262.632812 142.4375 259.097656 137.4375 256.375 134.769531 C 255.410156 133.828125 254.378906 133.011719 253.324219 132.359375 C 252.585938 133.546875 251.785156 134.445312 251.105469 135.089844 C 248.882812 137.191406 246.261719 138.125 244.425781 137.476562 C 243.292969 137.070312 242.570312 136.117188 242.394531 134.789062 C 242.179688 133.164062 242.5 131.734375 243.316406 130.664062 C 244.097656 129.640625 245.292969 128.988281 246.765625 128.773438 C 248.527344 128.515625 250.539062 128.898438 252.550781 129.824219 C 252.800781 129.253906 253.03125 128.628906 253.21875 127.949219 C 253.984375 125.171875 253.898438 122.144531 252.964844 118.949219 C 251.492188 113.910156 249.386719 109.125 246.710938 104.734375 C 244.289062 100.769531 241.460938 97.203125 238.300781 94.132812 C 235.441406 91.363281 232.347656 89.058594 229.34375 87.464844 C 226.515625 85.964844 223.820312 85.121094 221.550781 85.019531 C 220.875 84.988281 220.128906 85.019531 219.394531 85.183594 C 220.992188 87.042969 222.023438 88.984375 222.457031 90.945312 C 223.046875 93.605469 222.308594 95.851562 220.484375 96.957031 C 218.8125 97.96875 216.648438 97.769531 215.097656 96.460938 C 214.09375 95.617188 213.453125 94.398438 213.238281 92.941406 C 213.003906 91.332031 213.289062 89.488281 214.085938 87.460938 C 214.550781 86.273438 215.265625 85.3125 216.195312 84.601562 C 215.25 83.753906 214.167969 82.933594 212.96875 82.15625 C 209.339844 79.804688 204.976562 78.085938 201.574219 77.671875 C 199.578125 77.429688 197.453125 77.835938 195.253906 78.882812 C 194.636719 79.175781 194.03125 79.515625 193.457031 79.894531 C 191.078125 81.449219 189.234375 83.8125 188.113281 86.632812 C 188.582031 87.878906 188.957031 89.238281 189.234375 90.71875 C 189.917969 94.34375 189.949219 98.242188 189.925781 101.609375 L 189.597656 147.566406 C 189.707031 148.410156 189.820312 149.253906 189.9375 150.09375 C 192.269531 166.960938 192.777344 183.890625 191.453125 200.414062 C 190.996094 206.078125 190.335938 211.554688 189.484375 216.691406 C 189.417969 217.09375 189.351562 217.5 189.285156 217.910156 C 189.234375 218.222656 189.183594 218.535156 189.128906 218.851562 C 189.195312 219.421875 189.269531 219.988281 189.355469 220.546875 C 189.664062 222.582031 189.84375 224.679688 190.019531 226.707031 C 190.15625 228.277344 190.292969 229.863281 190.488281 231.433594 Z M 226.335938 208.148438 C 226.277344 208.148438 226.21875 208.148438 226.160156 208.152344 C 224.269531 208.253906 223.230469 208.816406 223.074219 209.820312 C 222.898438 210.941406 223.71875 212.679688 225.210938 214.351562 C 226.664062 215.984375 228.539062 217.363281 230.441406 218.214844 C 230.625 216.824219 230.644531 215.433594 230.488281 214.082031 C 230.417969 213.46875 229.710938 208.148438 226.335938 208.148438 Z M 149.128906 204.859375 C 148.367188 204.859375 147.609375 206.03125 147.261719 206.890625 C 146.101562 209.761719 145.613281 212.882812 145.753906 215.988281 C 145.757812 215.984375 145.761719 215.980469 145.765625 215.976562 C 148.566406 213.539062 150.148438 210.398438 150.226562 207.128906 C 150.25 206.152344 149.980469 205.078125 149.335938 204.890625 C 149.265625 204.871094 149.199219 204.859375 149.128906 204.859375 Z M 189.488281 163.058594 L 189.28125 191.8125 C 189.261719 194.6875 189.128906 197.699219 189 200.613281 C 188.878906 203.320312 188.757812 206.066406 188.722656 208.796875 C 189.0625 206.015625 189.347656 203.164062 189.582031 200.261719 C 190.5625 188.023438 190.53125 175.554688 189.488281 163.058594 Z M 116.652344 176.332031 C 118.949219 179.15625 121.675781 181.535156 124.714844 183.339844 C 125.292969 183.683594 127.257812 184.738281 128.195312 183.863281 C 128.976562 183.132812 128.511719 181.511719 128.347656 181.03125 C 127.683594 179.0625 126.304688 177.257812 124.5625 176.082031 C 122.757812 174.859375 120.785156 174.476562 119.015625 175.003906 C 118.167969 175.257812 117.367188 175.710938 116.652344 176.332031 Z M 253.238281 177.039062 C 252.589844 177.039062 251.984375 177.117188 251.46875 177.222656 C 249.820312 177.554688 248.082031 178.34375 246.695312 179.382812 C 245.125 180.5625 244.445312 181.730469 244.585938 182.277344 C 245.109375 184.335938 246.605469 184.277344 247.683594 184.050781 C 249.296875 183.71875 251.292969 182.5625 253.304688 180.796875 C 254.324219 179.90625 255.3125 178.886719 256.257812 177.769531 C 255.273438 177.21875 254.210938 177.039062 253.238281 177.039062 Z M 247.878906 130.570312 C 247.585938 130.570312 247.308594 130.589844 247.039062 130.628906 C 244.949219 130.933594 243.960938 132.324219 244.253906 134.546875 C 244.375 135.464844 244.886719 135.648438 245.054688 135.707031 C 245.988281 136.039062 247.875 135.558594 249.820312 133.726562 C 250.382812 133.191406 251.046875 132.449219 251.664062 131.476562 C 251.550781 131.425781 251.4375 131.375 251.324219 131.328125 C 250.101562 130.824219 248.929688 130.570312 247.878906 130.570312 Z M 122.175781 132.664062 C 123.035156 133.742188 124.054688 134.601562 125.195312 135.191406 C 126.464844 135.851562 128.1875 135.972656 128.746094 135.015625 C 129.164062 134.308594 128.691406 133.230469 127.992188 132.742188 C 127.246094 132.222656 126.15625 132.023438 124.742188 132.152344 C 123.875 132.230469 123.015625 132.402344 122.175781 132.664062 Z M 187.164062 89.980469 C 187.011719 90.8125 186.917969 91.667969 186.886719 92.542969 C 186.703125 97.328125 186.558594 105.105469 186.910156 114.976562 C 187.097656 120.300781 187.410156 125.625 187.839844 130.921875 L 188.050781 101.597656 C 188.074219 98.316406 188.042969 94.527344 187.390625 91.066406 C 187.320312 90.695312 187.246094 90.332031 187.160156 89.980469 Z M 217.554688 85.941406 C 216.839844 86.421875 216.230469 87.128906 215.832031 88.144531 C 215.15625 89.867188 214.90625 91.386719 215.09375 92.667969 C 215.242188 93.667969 215.660156 94.484375 216.304688 95.027344 C 217.226562 95.804688 218.546875 95.9375 219.515625 95.351562 C 220.632812 94.675781 221.039062 93.214844 220.628906 91.351562 C 220.226562 89.535156 219.171875 87.699219 217.554688 85.941406 Z M 153.441406 87.949219 C 152.484375 89.527344 152.152344 90.964844 152.449219 92.234375 C 152.671875 93.179688 153.585938 94.070312 154.628906 94.355469 C 155.039062 94.464844 155.8125 94.570312 156.367188 93.992188 C 156.726562 93.617188 156.941406 93.019531 156.957031 92.355469 C 157.003906 90.335938 155.300781 88.636719 153.441406 87.949219 Z M 153.441406 87.949219 " fill-opacity="1" fill-rule="nonzero"/></g><g clip-path="url(#d4138ba233)"><path fill="#006833" d="M 174.058594 86.542969 L 200.941406 86.542969 L 200.941406 217.789062 L 174.058594 217.789062 Z M 174.058594 86.542969 " fill-opacity="1" fill-rule="nonzero"/></g><g clip-path="url(#8b26491a8b)"><g clip-path="url(#40e97bf1d0)"><path fill="#ffffff" d="M 152.628906 199.132812 L 222.351562 199.132812 L 222.351562 157.46875 L 152.628906 157.46875 Z M 152.628906 199.132812 " fill-opacity="1" fill-rule="nonzero"/></g></g><g clip-path="url(#cb4c9b2e1e)"><g clip-path="url(#fbc4d77ffe)"><path fill="#ffffff" d="M 134.402344 163.75 L 184.546875 163.75 L 184.546875 119.503906 L 134.402344 119.503906 Z M 134.402344 163.75 " fill-opacity="1" fill-rule="nonzero"/></g></g><g clip-path="url(#49971e407f)"><g clip-path="url(#011cde18ea)"><path fill="#ffffff" d="M 190.445312 163.75 L 240.589844 163.75 L 240.589844 119.503906 L 190.445312 119.503906 Z M 190.445312 163.75 " fill-opacity="1" fill-rule="nonzero"/></g></g></svg>